<?xml version="1.0" encoding="utf-8"?>
<!-- Generator: Adobe Illustrator 24.3.0, SVG Export Plug-In . SVG Version: 6.00 Build 0)  -->
<svg version="1.1" id="Ebene_1" xmlns="http://www.w3.org/2000/svg" xmlns:xlink="http://www.w3.org/1999/xlink" x="0px" y="0px"
	 viewBox="0 0 50 50" style="enable-background:new 0 0 50 50;" xml:space="preserve">
<style type="text/css">
	.st0{fill:#FFFFFF;}
</style>
<g>
	<path class="st0" d="M27.38,13.74c-6.13,0-12.22,0-18.36,0c0,9.02,0,17.99,0,26.99c8.99,0,17.96,0,26.99,0c0-6.13,0-12.23,0-18.38
		c2.08,0,4.08,0,6.17,0c0,0.64,0,1.25,0,1.87c0,5.82,0,11.64,0,17.46c0,3.14-2.09,5.23-5.22,5.23c-9.68,0-19.36,0-29.04,0
		c-2.96,0-5.1-2.16-5.1-5.11c0-9.72,0-19.44,0.01-29.16c0-2.87,2.11-5.05,4.96-5.06c6.4-0.03,12.8-0.01,19.2-0.01
		c0.12,0,0.23,0.01,0.39,0.03C27.38,9.63,27.38,11.64,27.38,13.74z"/>
	<path class="st0" d="M40.89,13.19c-1.81,1.81-3.5,3.51-5.19,5.2c-3.77,3.77-7.55,7.55-11.32,11.32c-1.06,1.06-2.04,1.06-3.11,0
		c-0.47-0.47-0.94-0.93-1.4-1.4c-0.86-0.89-0.86-1.93,0.01-2.81c4.46-4.47,8.93-8.93,13.4-13.4c1.04-1.04,2.1-2.07,3.29-3.24
		c-0.37-0.02-0.56-0.03-0.74-0.03c-1.68,0-3.36,0-5.04,0c-1.46-0.01-2.17-0.72-2.18-2.17c0-0.66-0.01-1.32,0-1.98
		c0.02-1.28,0.77-2.02,2.08-2.03c2.6-0.01,5.2,0,7.8,0c2.08,0,4.16,0,6.24,0c1.65,0,2.35,0.68,2.35,2.31c0,4.7,0,9.4,0,14.09
		c0,1.29-0.76,2.04-2.05,2.05c-0.72,0-1.44,0-2.16,0c-1.19-0.01-1.94-0.74-1.95-1.95c-0.01-1.76,0-3.52-0.01-5.28
		C40.93,13.7,40.91,13.52,40.89,13.19z"/>
</g>
</svg>
