<?xml version="1.0" encoding="utf-8"?>
<!-- Generator: Adobe Illustrator 24.3.0, SVG Export Plug-In . SVG Version: 6.00 Build 0)  -->
<svg version="1.1" id="Ebene_1" xmlns="http://www.w3.org/2000/svg" xmlns:xlink="http://www.w3.org/1999/xlink" x="0px" y="0px"
	 viewBox="0 0 50 50" style="enable-background:new 0 0 50 50;" xml:space="preserve">
<style type="text/css">
	.st0{fill:#FFFFFF;}
</style>
<g>
	<path class="st0" d="M21.42,28.68c0-1.96,0-3.91,0-5.87c0-1.14,0.31-2.15,1.19-2.94c1.79-1.61,4.74-0.74,5.37,1.58
		c0.12,0.45,0.19,0.93,0.19,1.4c0.01,3.93,0.02,7.86,0,11.79c-0.01,1.39-0.49,2.56-1.75,3.29c-1.8,1.05-4.24,0.08-4.8-1.94
		c-0.13-0.46-0.19-0.96-0.19-1.44C21.41,32.59,21.42,30.64,21.42,28.68z"/>
	<path class="st0" d="M24.75,17.12c-2.04-0.05-3.71-1.75-3.65-3.72c0.06-2.09,1.73-3.69,3.8-3.65c1.9,0.04,3.6,1.58,3.59,3.72
		C28.49,15.53,26.77,17.17,24.75,17.12z"/>
	<path class="st0" d="M24.95,2.52c-12.29,0-22.24,9.96-22.24,22.24c0,12.28,9.96,22.24,22.24,22.24S47.2,37.05,47.2,24.77
		C47.2,12.48,37.24,2.52,24.95,2.52z M24.95,42.56c-9.83,0-17.8-7.97-17.8-17.8s7.97-17.8,17.8-17.8s17.8,7.97,17.8,17.8
		S34.78,42.56,24.95,42.56z"/>
</g>
</svg>
